<svg width="14" height="14" viewBox="0 0 14 14" fill="none" xmlns="http://www.w3.org/2000/svg">
<path d="M4.40759 12.6676H2.61902C2.30278 12.6676 1.99949 12.542 1.77588 12.3184C1.55226 12.0948 1.42664 11.7915 1.42664 11.4752V7.30192C1.42664 6.98568 1.55226 6.68239 1.77588 6.45878C1.99949 6.23516 2.30278 6.10953 2.61902 6.10953H4.40759M8.58092 4.91715V2.53239C8.58092 2.05803 8.39248 1.6031 8.05706 1.26768C7.72164 0.932258 7.26671 0.74382 6.79235 0.74382L4.40759 6.10953V12.6676H11.1326C11.4202 12.6709 11.6992 12.5701 11.9183 12.3838C12.1375 12.1976 12.2819 11.9384 12.325 11.6541L13.1477 6.28839C13.1737 6.1175 13.1622 5.94301 13.114 5.77701C13.0658 5.61101 12.9821 5.45748 12.8686 5.32704C12.7552 5.19661 12.6148 5.09239 12.4571 5.02162C12.2994 4.95084 12.1282 4.9152 11.9554 4.91715H8.58092Z" stroke="#83859C" stroke-width="0.894286" stroke-linecap="round" stroke-linejoin="round"/>
</svg>
