<svg width="15" height="15" viewBox="0 0 15 15" fill="none" xmlns="http://www.w3.org/2000/svg">
<g clip-path="url(#clip0_1802_841)">
<path d="M10.718 1.72096H12.3098C12.6473 1.715 12.9751 1.83313 13.2312 2.05293C13.4873 2.27274 13.6537 2.57892 13.699 2.91335V7.08668C13.6537 7.42111 13.4873 7.72728 13.2312 7.94709C12.9751 8.1669 12.6473 8.28503 12.3098 8.27906H10.718M6.54468 9.47144V11.8562C6.54468 12.3306 6.73312 12.7855 7.06854 13.1209C7.40396 13.4563 7.85889 13.6448 8.33325 13.6448L10.718 8.27906V1.72096H3.99298C3.70542 1.71771 3.42638 1.8185 3.20726 2.00475C2.98814 2.191 2.84372 2.45016 2.8006 2.73449L1.97786 8.1002C1.95192 8.2711 1.96345 8.44559 2.01164 8.61158C2.05983 8.77758 2.14354 8.93112 2.25696 9.06155C2.37038 9.19199 2.5108 9.2962 2.6685 9.36698C2.8262 9.43775 2.9974 9.4734 3.17024 9.47144H6.54468Z" stroke="#83859C" stroke-width="0.894286" stroke-linecap="round" stroke-linejoin="round"/>
</g>
<defs>
<clipPath id="clip0_1802_841">
<rect width="14.3086" height="14.3086" fill="white" transform="translate(0.582764 0.528564)"/>
</clipPath>
</defs>
</svg>
